%
M48
M72
T01C0.03200
T02C0.03937
T03C0.04000
%
T01
X59568Y60087
X59568Y90087
X72461Y91083
X102461Y91083
X116524Y62150
X146524Y62150
X159524Y62213
X169524Y62213
X166772Y41650
X158272Y41650
X149772Y41650
T02
X34083Y48650
X15186Y60855
X34083Y72666
T03
X17524Y20587
X27524Y20587
X37524Y20587
X47524Y20587
X57524Y20587
X67524Y20587
X77524Y20587
X87524Y20587
X102524Y20587
X112524Y20587
X122524Y20587
X132524Y20587
X142524Y20587
X152524Y20587
X162524Y20587
X172524Y20587
X136209Y42150
X126209Y42150
X116209Y42150
X106209Y42150
X96209Y42150
X86209Y42150
X76209Y42150
X66209Y42150
X79989Y68965
X89989Y68965
X99989Y68965
X151249Y83690
X161249Y83690
X171249Y83690
M30
