G75*
%MOIN*%
%OFA0B0*%
%FSLAX25Y25*%
%IPPOS*%
%LPD*%
%AMOC8*
5,1,8,0,0,1.08239X$1,22.5*
%
%ADD10C,0.01000*%
%ADD11C,0.06000*%
%ADD12OC8,0.07000*%
%ADD13OC8,0.05200*%
%ADD14OC8,0.06600*%
%ADD15C,0.07874*%
%ADD16C,0.06000*%
%ADD17C,0.01600*%
D10*
X0003087Y0003087D02*
X0003087Y0109402D01*
X0181599Y0109402D01*
X0181599Y0003087D01*
X0003087Y0003087D01*
D11*
X0017524Y0017587D02*
X0017524Y0023587D01*
X0027524Y0023587D02*
X0027524Y0017587D01*
X0037524Y0017587D02*
X0037524Y0023587D01*
X0047524Y0023587D02*
X0047524Y0017587D01*
X0057524Y0017587D02*
X0057524Y0023587D01*
X0067524Y0023587D02*
X0067524Y0017587D01*
X0077524Y0017587D02*
X0077524Y0023587D01*
X0087524Y0023587D02*
X0087524Y0017587D01*
X0102524Y0017587D02*
X0102524Y0023587D01*
X0112524Y0023587D02*
X0112524Y0017587D01*
X0122524Y0017587D02*
X0122524Y0023587D01*
X0132524Y0023587D02*
X0132524Y0017587D01*
X0142524Y0017587D02*
X0142524Y0023587D01*
X0152524Y0023587D02*
X0152524Y0017587D01*
X0162524Y0017587D02*
X0162524Y0023587D01*
X0172524Y0023587D02*
X0172524Y0017587D01*
X0099989Y0065965D02*
X0099989Y0071965D01*
X0089989Y0071965D02*
X0089989Y0065965D01*
X0079989Y0065965D02*
X0079989Y0071965D01*
D12*
X0076209Y0042150D03*
X0086209Y0042150D03*
X0096209Y0042150D03*
X0106209Y0042150D03*
X0116209Y0042150D03*
X0126209Y0042150D03*
X0136209Y0042150D03*
X0066209Y0042150D03*
D13*
X0059568Y0060087D03*
X0059568Y0090087D03*
X0072461Y0091083D03*
X0102461Y0091083D03*
X0116524Y0062150D03*
X0146524Y0062150D03*
X0159524Y0062213D03*
X0169524Y0062213D03*
D14*
X0166772Y0041650D03*
X0158272Y0041650D03*
X0149772Y0041650D03*
D15*
X0038020Y0048650D02*
X0030146Y0048650D01*
X0015186Y0056918D02*
X0015186Y0064792D01*
X0030146Y0072666D02*
X0038020Y0072666D01*
D16*
X0151249Y0083690D03*
X0161249Y0083690D03*
X0171249Y0083690D03*
D17*
X0153926Y0101013D01*
X0053769Y0101013D01*
X0034083Y0081328D01*
X0034083Y0072666D01*
X0033899Y0072482D02*
X0034268Y0072482D01*
X0034268Y0072850D01*
X0043757Y0072850D01*
X0043757Y0073118D01*
X0043616Y0074010D01*
X0043337Y0074868D01*
X0042927Y0075673D01*
X0042396Y0076404D01*
X0041758Y0077042D01*
X0041027Y0077573D01*
X0040223Y0077983D01*
X0039364Y0078262D01*
X0038472Y0078403D01*
X0034268Y0078403D01*
X0034268Y0072850D01*
X0033899Y0072850D01*
X0033899Y0072482D01*
X0024409Y0072482D01*
X0024409Y0072215D01*
X0024551Y0071323D01*
X0024830Y0070464D01*
X0025240Y0069659D01*
X0025771Y0068929D01*
X0026409Y0068290D01*
X0027140Y0067759D01*
X0027944Y0067349D01*
X0028803Y0067070D01*
X0029695Y0066929D01*
X0033899Y0066929D01*
X0033899Y0072482D01*
X0033899Y0072850D02*
X0024409Y0072850D01*
X0024409Y0073118D01*
X0024551Y0074010D01*
X0024830Y0074868D01*
X0025240Y0075673D01*
X0025771Y0076404D01*
X0026409Y0077042D01*
X0027140Y0077573D01*
X0027944Y0077983D01*
X0028803Y0078262D01*
X0029695Y0078403D01*
X0033899Y0078403D01*
X0033899Y0072850D01*
X0033899Y0072922D02*
X0034268Y0072922D01*
X0034268Y0072482D02*
X0043757Y0072482D01*
X0043757Y0072215D01*
X0043616Y0071323D01*
X0043337Y0070464D01*
X0042927Y0069659D01*
X0042396Y0068929D01*
X0041758Y0068290D01*
X0041027Y0067759D01*
X0040223Y0067349D01*
X0039364Y0067070D01*
X0038472Y0066929D01*
X0034268Y0066929D01*
X0034268Y0072482D01*
X0034268Y0071323D02*
X0033899Y0071323D01*
X0033899Y0069725D02*
X0034268Y0069725D01*
X0034268Y0068126D02*
X0033899Y0068126D01*
X0026635Y0068126D02*
X0019855Y0068126D01*
X0020093Y0067799D02*
X0019562Y0068530D01*
X0018923Y0069168D01*
X0018193Y0069699D01*
X0017388Y0070109D01*
X0016529Y0070388D01*
X0015637Y0070529D01*
X0015370Y0070529D01*
X0015370Y0061039D01*
X0020923Y0061039D01*
X0020923Y0065244D01*
X0020782Y0066136D01*
X0020503Y0066994D01*
X0020093Y0067799D01*
X0020654Y0066528D02*
X0074589Y0066528D01*
X0074589Y0068126D02*
X0041532Y0068126D01*
X0042961Y0069725D02*
X0074589Y0069725D01*
X0074589Y0069840D02*
X0074589Y0064891D01*
X0075411Y0062906D01*
X0076930Y0061387D01*
X0078915Y0060565D01*
X0081063Y0060565D01*
X0083048Y0061387D01*
X0084567Y0062906D01*
X0084989Y0063926D01*
X0085411Y0062906D01*
X0086930Y0061387D01*
X0088915Y0060565D01*
X0091063Y0060565D01*
X0093048Y0061387D01*
X0094567Y0062906D01*
X0094989Y0063926D01*
X0095411Y0062906D01*
X0096930Y0061387D01*
X0098915Y0060565D01*
X0101063Y0060565D01*
X0103048Y0061387D01*
X0104567Y0062906D01*
X0105389Y0064891D01*
X0105389Y0073039D01*
X0104567Y0075024D01*
X0103048Y0076543D01*
X0101063Y0077365D01*
X0098915Y0077365D01*
X0096930Y0076543D01*
X0095411Y0075024D01*
X0094989Y0074005D01*
X0094567Y0075024D01*
X0093189Y0076402D01*
X0093189Y0078821D01*
X0093677Y0079309D01*
X0101255Y0079309D01*
X0102432Y0079796D01*
X0105187Y0082552D01*
X0106088Y0083452D01*
X0106575Y0084628D01*
X0106575Y0087883D01*
X0142530Y0087883D01*
X0145849Y0084564D01*
X0145849Y0082616D01*
X0146671Y0080631D01*
X0148190Y0079112D01*
X0150175Y0078290D01*
X0152323Y0078290D01*
X0154308Y0079112D01*
X0155827Y0080631D01*
X0156249Y0081650D01*
X0156671Y0080631D01*
X0158190Y0079112D01*
X0160175Y0078290D01*
X0162323Y0078290D01*
X0164308Y0079112D01*
X0165827Y0080631D01*
X0166594Y0082483D01*
X0166800Y0081847D01*
X0167143Y0081174D01*
X0167588Y0080563D01*
X0168122Y0080029D01*
X0168733Y0079584D01*
X0169406Y0079241D01*
X0170125Y0079008D01*
X0170871Y0078890D01*
X0171049Y0078890D01*
X0171049Y0083490D01*
X0171449Y0083490D01*
X0171449Y0083890D01*
X0171049Y0083890D01*
X0171049Y0088490D01*
X0170871Y0088490D01*
X0170125Y0088372D01*
X0169406Y0088138D01*
X0168733Y0087795D01*
X0168122Y0087351D01*
X0167588Y0086817D01*
X0167143Y0086205D01*
X0166800Y0085532D01*
X0166594Y0084896D01*
X0165827Y0086749D01*
X0164308Y0088268D01*
X0162323Y0089090D01*
X0160175Y0089090D01*
X0158190Y0088268D01*
X0156671Y0086749D01*
X0156249Y0085730D01*
X0155827Y0086749D01*
X0154308Y0088268D01*
X0152323Y0089090D01*
X0150374Y0089090D01*
X0146568Y0092896D01*
X0146568Y0092896D01*
X0145668Y0093796D01*
X0144492Y0094283D01*
X0106332Y0094283D01*
X0104532Y0096083D01*
X0100390Y0096083D01*
X0097461Y0093155D01*
X0097461Y0089012D01*
X0100029Y0086445D01*
X0099293Y0085709D01*
X0091715Y0085709D01*
X0090539Y0085221D01*
X0089638Y0084321D01*
X0087276Y0081959D01*
X0086789Y0080783D01*
X0086789Y0076402D01*
X0085411Y0075024D01*
X0084989Y0074005D01*
X0084567Y0075024D01*
X0083048Y0076543D01*
X0081063Y0077365D01*
X0078915Y0077365D01*
X0076935Y0076545D01*
X0075661Y0077818D01*
X0075661Y0087212D01*
X0077461Y0089012D01*
X0077461Y0093155D01*
X0074532Y0096083D01*
X0070390Y0096083D01*
X0067461Y0093155D01*
X0067461Y0089012D01*
X0069261Y0087212D01*
X0069261Y0075856D01*
X0069749Y0074680D01*
X0074589Y0069840D01*
X0073105Y0071323D02*
X0043616Y0071323D01*
X0043757Y0072922D02*
X0071507Y0072922D01*
X0069908Y0074520D02*
X0043450Y0074520D01*
X0042603Y0076119D02*
X0069261Y0076119D01*
X0069261Y0077717D02*
X0040744Y0077717D01*
X0034268Y0077717D02*
X0033899Y0077717D01*
X0033899Y0076119D02*
X0034268Y0076119D01*
X0034268Y0074520D02*
X0033899Y0074520D01*
X0027423Y0077717D02*
X0008387Y0077717D01*
X0008387Y0079316D02*
X0069261Y0079316D01*
X0069261Y0080914D02*
X0008387Y0080914D01*
X0008387Y0082513D02*
X0069261Y0082513D01*
X0069261Y0084111D02*
X0008387Y0084111D01*
X0008387Y0085710D02*
X0056874Y0085710D01*
X0057497Y0085087D02*
X0061639Y0085087D01*
X0064568Y0088016D01*
X0064568Y0092158D01*
X0061639Y0095087D01*
X0057497Y0095087D01*
X0054568Y0092158D01*
X0054568Y0088016D01*
X0057497Y0085087D01*
X0055276Y0087309D02*
X0008387Y0087309D01*
X0008387Y0088907D02*
X0054568Y0088907D01*
X0054568Y0090506D02*
X0008387Y0090506D01*
X0008387Y0092104D02*
X0054568Y0092104D01*
X0056112Y0093703D02*
X0008387Y0093703D01*
X0008387Y0095301D02*
X0069608Y0095301D01*
X0068009Y0093703D02*
X0063024Y0093703D01*
X0064568Y0092104D02*
X0067461Y0092104D01*
X0067461Y0090506D02*
X0064568Y0090506D01*
X0064568Y0088907D02*
X0067567Y0088907D01*
X0069165Y0087309D02*
X0063860Y0087309D01*
X0062261Y0085710D02*
X0069261Y0085710D01*
X0075661Y0085710D02*
X0099295Y0085710D01*
X0099165Y0087309D02*
X0075758Y0087309D01*
X0077356Y0088907D02*
X0097567Y0088907D01*
X0097461Y0090506D02*
X0077461Y0090506D01*
X0077461Y0092104D02*
X0097461Y0092104D01*
X0098009Y0093703D02*
X0076913Y0093703D01*
X0075315Y0095301D02*
X0099608Y0095301D01*
X0102461Y0091083D02*
X0103375Y0090170D01*
X0103375Y0085265D01*
X0100619Y0082509D01*
X0092351Y0082509D01*
X0089989Y0080146D01*
X0089989Y0068965D01*
X0094776Y0074520D02*
X0095202Y0074520D01*
X0096506Y0076119D02*
X0093472Y0076119D01*
X0093189Y0077717D02*
X0176299Y0077717D01*
X0176299Y0079316D02*
X0173238Y0079316D01*
X0173091Y0079241D02*
X0173765Y0079584D01*
X0174376Y0080029D01*
X0174910Y0080563D01*
X0175354Y0081174D01*
X0175697Y0081847D01*
X0175931Y0082566D01*
X0176049Y0083312D01*
X0176049Y0083490D01*
X0171449Y0083490D01*
X0171449Y0078890D01*
X0171627Y0078890D01*
X0172373Y0079008D01*
X0173091Y0079241D01*
X0171449Y0079316D02*
X0171049Y0079316D01*
X0169260Y0079316D02*
X0164512Y0079316D01*
X0165944Y0080914D02*
X0167332Y0080914D01*
X0171049Y0080914D02*
X0171449Y0080914D01*
X0171449Y0082513D02*
X0171049Y0082513D01*
X0171449Y0083890D02*
X0176049Y0083890D01*
X0176049Y0084068D01*
X0175931Y0084814D01*
X0175697Y0085532D01*
X0175354Y0086205D01*
X0174910Y0086817D01*
X0174376Y0087351D01*
X0173765Y0087795D01*
X0173091Y0088138D01*
X0172373Y0088372D01*
X0171627Y0088490D01*
X0171449Y0088490D01*
X0171449Y0083890D01*
X0171449Y0084111D02*
X0171049Y0084111D01*
X0171049Y0085710D02*
X0171449Y0085710D01*
X0171449Y0087309D02*
X0171049Y0087309D01*
X0168079Y0087309D02*
X0165267Y0087309D01*
X0166257Y0085710D02*
X0166891Y0085710D01*
X0162764Y0088907D02*
X0176299Y0088907D01*
X0176299Y0090506D02*
X0148959Y0090506D01*
X0147360Y0092104D02*
X0176299Y0092104D01*
X0176299Y0093703D02*
X0145762Y0093703D01*
X0143855Y0091083D02*
X0151249Y0083690D01*
X0146553Y0080914D02*
X0103550Y0080914D01*
X0105149Y0082513D02*
X0145891Y0082513D01*
X0145849Y0084111D02*
X0106361Y0084111D01*
X0106575Y0085710D02*
X0144703Y0085710D01*
X0143105Y0087309D02*
X0106575Y0087309D01*
X0102461Y0091083D02*
X0143855Y0091083D01*
X0152764Y0088907D02*
X0159734Y0088907D01*
X0157231Y0087309D02*
X0155267Y0087309D01*
X0155944Y0080914D02*
X0156553Y0080914D01*
X0157986Y0079316D02*
X0154512Y0079316D01*
X0147986Y0079316D02*
X0101273Y0079316D01*
X0103472Y0076119D02*
X0176299Y0076119D01*
X0176299Y0074520D02*
X0104776Y0074520D01*
X0105389Y0072922D02*
X0176299Y0072922D01*
X0176299Y0071323D02*
X0105389Y0071323D01*
X0105389Y0069725D02*
X0176299Y0069725D01*
X0176299Y0068126D02*
X0105389Y0068126D01*
X0105389Y0066528D02*
X0113831Y0066528D01*
X0114453Y0067150D02*
X0111524Y0064221D01*
X0111524Y0060079D01*
X0114453Y0057150D01*
X0118595Y0057150D01*
X0121524Y0060079D01*
X0121524Y0064221D01*
X0118595Y0067150D01*
X0114453Y0067150D01*
X0112232Y0064929D02*
X0105389Y0064929D01*
X0104743Y0063331D02*
X0111524Y0063331D01*
X0111524Y0061732D02*
X0103393Y0061732D01*
X0096585Y0061732D02*
X0093393Y0061732D01*
X0094743Y0063331D02*
X0095235Y0063331D01*
X0086585Y0061732D02*
X0083393Y0061732D01*
X0084743Y0063331D02*
X0085235Y0063331D01*
X0079989Y0068965D02*
X0072461Y0076493D01*
X0072461Y0091083D01*
X0075661Y0084111D02*
X0089429Y0084111D01*
X0089638Y0084321D02*
X0089638Y0084321D01*
X0087830Y0082513D02*
X0075661Y0082513D01*
X0075661Y0080914D02*
X0086843Y0080914D01*
X0086789Y0079316D02*
X0075661Y0079316D01*
X0075762Y0077717D02*
X0086789Y0077717D01*
X0086506Y0076119D02*
X0083472Y0076119D01*
X0084776Y0074520D02*
X0085202Y0074520D01*
X0074589Y0064929D02*
X0061797Y0064929D01*
X0061639Y0065087D02*
X0057497Y0065087D01*
X0054568Y0062158D01*
X0054568Y0058016D01*
X0057497Y0055087D01*
X0061639Y0055087D01*
X0064568Y0058016D01*
X0064568Y0062158D01*
X0061639Y0065087D01*
X0063395Y0063331D02*
X0075235Y0063331D01*
X0076585Y0061732D02*
X0064568Y0061732D01*
X0064568Y0060134D02*
X0111524Y0060134D01*
X0113068Y0058535D02*
X0064568Y0058535D01*
X0063488Y0056937D02*
X0176299Y0056937D01*
X0176299Y0055338D02*
X0061890Y0055338D01*
X0057246Y0055338D02*
X0020705Y0055338D01*
X0020782Y0055575D02*
X0020923Y0056467D01*
X0020923Y0060671D01*
X0015370Y0060671D01*
X0015370Y0061039D01*
X0015002Y0061039D01*
X0015001Y0061039D02*
X0015001Y0060671D01*
X0009449Y0060671D01*
X0009449Y0056467D01*
X0009590Y0055575D01*
X0009869Y0054716D01*
X0010279Y0053911D01*
X0010810Y0053181D01*
X0011448Y0052542D01*
X0012179Y0052011D01*
X0012984Y0051601D01*
X0013842Y0051322D01*
X0014734Y0051181D01*
X0015002Y0051181D01*
X0015002Y0060671D01*
X0015370Y0060671D01*
X0015370Y0051181D01*
X0015637Y0051181D01*
X0016529Y0051322D01*
X0017388Y0051601D01*
X0018193Y0052011D01*
X0018923Y0052542D01*
X0019562Y0053181D01*
X0020093Y0053911D01*
X0020503Y0054716D01*
X0020782Y0055575D01*
X0020923Y0056937D02*
X0055647Y0056937D01*
X0054568Y0058535D02*
X0020923Y0058535D01*
X0020923Y0060134D02*
X0054568Y0060134D01*
X0054568Y0061732D02*
X0020923Y0061732D01*
X0020923Y0063331D02*
X0055740Y0063331D01*
X0057339Y0064929D02*
X0020923Y0064929D01*
X0015370Y0064929D02*
X0015002Y0064929D01*
X0015002Y0063331D02*
X0015370Y0063331D01*
X0015370Y0061732D02*
X0015002Y0061732D01*
X0015002Y0061039D02*
X0015002Y0070529D01*
X0014734Y0070529D01*
X0013842Y0070388D01*
X0012984Y0070109D01*
X0012179Y0069699D01*
X0011448Y0069168D01*
X0010810Y0068530D01*
X0010279Y0067799D01*
X0009869Y0066994D01*
X0009590Y0066136D01*
X0009449Y0065244D01*
X0009449Y0061039D01*
X0015001Y0061039D01*
X0015002Y0060134D02*
X0015370Y0060134D01*
X0015370Y0058535D02*
X0015002Y0058535D01*
X0015002Y0056937D02*
X0015370Y0056937D01*
X0015370Y0055338D02*
X0015002Y0055338D01*
X0015002Y0053740D02*
X0015370Y0053740D01*
X0015370Y0052141D02*
X0015002Y0052141D01*
X0018371Y0052141D02*
X0024733Y0052141D01*
X0024774Y0052240D02*
X0023809Y0049911D01*
X0023809Y0047390D01*
X0024774Y0045061D01*
X0026557Y0043278D01*
X0028886Y0042313D01*
X0039281Y0042313D01*
X0041610Y0043278D01*
X0043393Y0045061D01*
X0044357Y0047390D01*
X0044357Y0049911D01*
X0043393Y0052240D01*
X0041610Y0054023D01*
X0039281Y0054987D01*
X0028886Y0054987D01*
X0026557Y0054023D01*
X0024774Y0052240D01*
X0024071Y0050543D02*
X0008387Y0050543D01*
X0008387Y0052141D02*
X0012000Y0052141D01*
X0010404Y0053740D02*
X0008387Y0053740D01*
X0008387Y0055338D02*
X0009667Y0055338D01*
X0009449Y0056937D02*
X0008387Y0056937D01*
X0008387Y0058535D02*
X0009449Y0058535D01*
X0009449Y0060134D02*
X0008387Y0060134D01*
X0008387Y0061732D02*
X0009449Y0061732D01*
X0009449Y0063331D02*
X0008387Y0063331D01*
X0008387Y0064929D02*
X0009449Y0064929D01*
X0009718Y0066528D02*
X0008387Y0066528D01*
X0008387Y0068126D02*
X0010517Y0068126D01*
X0012230Y0069725D02*
X0008387Y0069725D01*
X0008387Y0071323D02*
X0024551Y0071323D01*
X0024409Y0072922D02*
X0008387Y0072922D01*
X0008387Y0074520D02*
X0024717Y0074520D01*
X0025564Y0076119D02*
X0008387Y0076119D01*
X0015002Y0069725D02*
X0015370Y0069725D01*
X0018142Y0069725D02*
X0025206Y0069725D01*
X0015370Y0068126D02*
X0015002Y0068126D01*
X0015002Y0066528D02*
X0015370Y0066528D01*
X0019968Y0053740D02*
X0026274Y0053740D01*
X0023809Y0048944D02*
X0008387Y0048944D01*
X0008387Y0047346D02*
X0023828Y0047346D01*
X0024490Y0045747D02*
X0008387Y0045747D01*
X0008387Y0044149D02*
X0025686Y0044149D01*
X0028314Y0042550D02*
X0008387Y0042550D01*
X0008387Y0040952D02*
X0060309Y0040952D01*
X0060309Y0039707D02*
X0063766Y0036250D01*
X0067158Y0036250D01*
X0064254Y0033346D01*
X0053132Y0033346D01*
X0051956Y0032859D01*
X0051056Y0031959D01*
X0048084Y0028987D01*
X0046450Y0028987D01*
X0044466Y0028165D01*
X0042947Y0026646D01*
X0042524Y0025627D01*
X0042102Y0026646D01*
X0040583Y0028165D01*
X0038599Y0028987D01*
X0036450Y0028987D01*
X0034466Y0028165D01*
X0032947Y0026646D01*
X0032524Y0025627D01*
X0032102Y0026646D01*
X0030583Y0028165D01*
X0028599Y0028987D01*
X0026450Y0028987D01*
X0024466Y0028165D01*
X0022947Y0026646D01*
X0022524Y0025627D01*
X0022102Y0026646D01*
X0020583Y0028165D01*
X0018599Y0028987D01*
X0016450Y0028987D01*
X0014466Y0028165D01*
X0012947Y0026646D01*
X0012124Y0024662D01*
X0012124Y0016513D01*
X0012947Y0014529D01*
X0014466Y0013009D01*
X0016450Y0012187D01*
X0018599Y0012187D01*
X0020583Y0013009D01*
X0022102Y0014529D01*
X0022524Y0015548D01*
X0022947Y0014529D01*
X0024466Y0013009D01*
X0026450Y0012187D01*
X0028599Y0012187D01*
X0030583Y0013009D01*
X0032102Y0014529D01*
X0032524Y0015548D01*
X0032947Y0014529D01*
X0034466Y0013009D01*
X0036450Y0012187D01*
X0038599Y0012187D01*
X0040583Y0013009D01*
X0042102Y0014529D01*
X0042524Y0015548D01*
X0042947Y0014529D01*
X0044466Y0013009D01*
X0046450Y0012187D01*
X0048599Y0012187D01*
X0050583Y0013009D01*
X0052102Y0014529D01*
X0052524Y0015548D01*
X0052947Y0014529D01*
X0054466Y0013009D01*
X0056450Y0012187D01*
X0058599Y0012187D01*
X0060583Y0013009D01*
X0062102Y0014529D01*
X0062524Y0015548D01*
X0062947Y0014529D01*
X0064466Y0013009D01*
X0066450Y0012187D01*
X0068599Y0012187D01*
X0070583Y0013009D01*
X0072102Y0014529D01*
X0072524Y0015548D01*
X0072947Y0014529D01*
X0074466Y0013009D01*
X0076450Y0012187D01*
X0078599Y0012187D01*
X0080583Y0013009D01*
X0082102Y0014529D01*
X0082524Y0015548D01*
X0082947Y0014529D01*
X0084466Y0013009D01*
X0086450Y0012187D01*
X0088599Y0012187D01*
X0090583Y0013009D01*
X0092102Y0014529D01*
X0092924Y0016513D01*
X0092924Y0024662D01*
X0092706Y0025189D01*
X0094464Y0026946D01*
X0098247Y0026946D01*
X0097947Y0026646D01*
X0097124Y0024662D01*
X0097124Y0016513D01*
X0097947Y0014529D01*
X0099466Y0013009D01*
X0101450Y0012187D01*
X0103599Y0012187D01*
X0105583Y0013009D01*
X0107102Y0014529D01*
X0107524Y0015548D01*
X0107947Y0014529D01*
X0109466Y0013009D01*
X0111450Y0012187D01*
X0113599Y0012187D01*
X0115583Y0013009D01*
X0117102Y0014529D01*
X0117524Y0015548D01*
X0117947Y0014529D01*
X0119466Y0013009D01*
X0121450Y0012187D01*
X0123599Y0012187D01*
X0125583Y0013009D01*
X0127102Y0014529D01*
X0127524Y0015548D01*
X0127947Y0014529D01*
X0129466Y0013009D01*
X0131450Y0012187D01*
X0133599Y0012187D01*
X0135583Y0013009D01*
X0137102Y0014529D01*
X0137524Y0015548D01*
X0137947Y0014529D01*
X0139466Y0013009D01*
X0141450Y0012187D01*
X0143599Y0012187D01*
X0145583Y0013009D01*
X0147102Y0014529D01*
X0147524Y0015548D01*
X0147947Y0014529D01*
X0149466Y0013009D01*
X0151450Y0012187D01*
X0153599Y0012187D01*
X0155583Y0013009D01*
X0157102Y0014529D01*
X0157869Y0016381D01*
X0158076Y0015745D01*
X0158419Y0015072D01*
X0158863Y0014460D01*
X0159397Y0013926D01*
X0160009Y0013482D01*
X0160682Y0013139D01*
X0161400Y0012906D01*
X0162147Y0012787D01*
X0162324Y0012787D01*
X0162324Y0020387D01*
X0162724Y0020387D01*
X0162724Y0012787D01*
X0162902Y0012787D01*
X0163648Y0012906D01*
X0164367Y0013139D01*
X0165040Y0013482D01*
X0165651Y0013926D01*
X0166186Y0014460D01*
X0166630Y0015072D01*
X0166973Y0015745D01*
X0167179Y0016381D01*
X0167947Y0014529D01*
X0169466Y0013009D01*
X0171450Y0012187D01*
X0173599Y0012187D01*
X0175583Y0013009D01*
X0176299Y0013725D01*
X0176299Y0008387D01*
X0008387Y0008387D01*
X0008387Y0104102D01*
X0176299Y0104102D01*
X0176299Y0027449D01*
X0175583Y0028165D01*
X0173599Y0028987D01*
X0171450Y0028987D01*
X0169466Y0028165D01*
X0167947Y0026646D01*
X0167179Y0024794D01*
X0166973Y0025430D01*
X0166630Y0026103D01*
X0166186Y0026714D01*
X0165651Y0027249D01*
X0165040Y0027693D01*
X0164367Y0028036D01*
X0163648Y0028269D01*
X0162902Y0028387D01*
X0162724Y0028387D01*
X0162724Y0020787D01*
X0162324Y0020787D01*
X0162324Y0028387D01*
X0162147Y0028387D01*
X0161400Y0028269D01*
X0160682Y0028036D01*
X0160009Y0027693D01*
X0159397Y0027249D01*
X0158863Y0026714D01*
X0158419Y0026103D01*
X0158076Y0025430D01*
X0157869Y0024794D01*
X0157102Y0026646D01*
X0155583Y0028165D01*
X0153599Y0028987D01*
X0151450Y0028987D01*
X0149466Y0028165D01*
X0147947Y0026646D01*
X0147524Y0025627D01*
X0147102Y0026646D01*
X0145583Y0028165D01*
X0143599Y0028987D01*
X0141450Y0028987D01*
X0139466Y0028165D01*
X0137947Y0026646D01*
X0137524Y0025627D01*
X0137102Y0026646D01*
X0135583Y0028165D01*
X0133599Y0028987D01*
X0131450Y0028987D01*
X0129466Y0028165D01*
X0127947Y0026646D01*
X0127524Y0025627D01*
X0127102Y0026646D01*
X0125583Y0028165D01*
X0123599Y0028987D01*
X0121450Y0028987D01*
X0119466Y0028165D01*
X0117947Y0026646D01*
X0117524Y0025627D01*
X0117102Y0026646D01*
X0115724Y0028024D01*
X0115724Y0028522D01*
X0118086Y0030883D01*
X0129208Y0030883D01*
X0130384Y0031371D01*
X0135264Y0036250D01*
X0138653Y0036250D01*
X0142109Y0039707D01*
X0142109Y0044594D01*
X0138653Y0048050D01*
X0133766Y0048050D01*
X0131209Y0045494D01*
X0128653Y0048050D01*
X0123766Y0048050D01*
X0121209Y0045494D01*
X0118653Y0048050D01*
X0113766Y0048050D01*
X0111209Y0045494D01*
X0108653Y0048050D01*
X0103766Y0048050D01*
X0101209Y0045494D01*
X0098653Y0048050D01*
X0093766Y0048050D01*
X0091209Y0045494D01*
X0088653Y0048050D01*
X0083766Y0048050D01*
X0081209Y0045494D01*
X0078653Y0048050D01*
X0073766Y0048050D01*
X0071209Y0045494D01*
X0068653Y0048050D01*
X0063766Y0048050D01*
X0060309Y0044594D01*
X0060309Y0039707D01*
X0060663Y0039353D02*
X0008387Y0039353D01*
X0008387Y0037755D02*
X0062261Y0037755D01*
X0065465Y0034558D02*
X0008387Y0034558D01*
X0008387Y0032959D02*
X0052197Y0032959D01*
X0050457Y0031361D02*
X0008387Y0031361D01*
X0008387Y0029762D02*
X0048859Y0029762D01*
X0044464Y0028164D02*
X0040585Y0028164D01*
X0042136Y0026565D02*
X0042913Y0026565D01*
X0047524Y0023902D02*
X0053769Y0030146D01*
X0065580Y0030146D01*
X0077391Y0041957D01*
X0080956Y0045747D02*
X0081462Y0045747D01*
X0083061Y0047346D02*
X0079358Y0047346D01*
X0073061Y0047346D02*
X0069358Y0047346D01*
X0070956Y0045747D02*
X0071462Y0045747D01*
X0063061Y0047346D02*
X0044339Y0047346D01*
X0044357Y0048944D02*
X0176299Y0048944D01*
X0176299Y0047346D02*
X0169138Y0047346D01*
X0169133Y0047350D02*
X0164411Y0047350D01*
X0162522Y0045461D01*
X0160633Y0047350D01*
X0155911Y0047350D01*
X0153598Y0045037D01*
X0151885Y0046750D01*
X0149772Y0046750D01*
X0147660Y0046750D01*
X0144672Y0043763D01*
X0144672Y0041650D01*
X0144672Y0039538D01*
X0147660Y0036550D01*
X0149772Y0036550D01*
X0149772Y0041650D01*
X0149772Y0041650D01*
X0144672Y0041650D01*
X0149772Y0041650D01*
X0149772Y0041650D01*
X0149772Y0036550D01*
X0151885Y0036550D01*
X0153598Y0038264D01*
X0155911Y0035950D01*
X0160633Y0035950D01*
X0162522Y0037839D01*
X0164411Y0035950D01*
X0169133Y0035950D01*
X0172472Y0039289D01*
X0172472Y0044011D01*
X0169133Y0047350D01*
X0170737Y0045747D02*
X0176299Y0045747D01*
X0176299Y0044149D02*
X0172335Y0044149D01*
X0172472Y0042550D02*
X0176299Y0042550D01*
X0176299Y0040952D02*
X0172472Y0040952D01*
X0172472Y0039353D02*
X0176299Y0039353D01*
X0176299Y0037755D02*
X0170938Y0037755D01*
X0169339Y0036156D02*
X0176299Y0036156D01*
X0176299Y0034558D02*
X0133571Y0034558D01*
X0131973Y0032959D02*
X0176299Y0032959D01*
X0176299Y0031361D02*
X0130360Y0031361D01*
X0129464Y0028164D02*
X0125585Y0028164D01*
X0127136Y0026565D02*
X0127913Y0026565D01*
X0135585Y0028164D02*
X0139464Y0028164D01*
X0137913Y0026565D02*
X0137136Y0026565D01*
X0145585Y0028164D02*
X0149464Y0028164D01*
X0147913Y0026565D02*
X0147136Y0026565D01*
X0152194Y0030146D02*
X0148257Y0034083D01*
X0148257Y0040135D01*
X0149772Y0041650D01*
X0149772Y0043473D01*
X0156131Y0049831D01*
X0167942Y0049831D01*
X0171879Y0053769D01*
X0171879Y0059859D01*
X0169524Y0062213D01*
X0169524Y0062213D01*
X0169524Y0057813D01*
X0167702Y0057813D01*
X0165124Y0060391D01*
X0165124Y0062213D01*
X0169524Y0062213D01*
X0169524Y0062213D01*
X0165124Y0062213D01*
X0165124Y0064036D01*
X0167702Y0066613D01*
X0169524Y0066613D01*
X0169524Y0062214D01*
X0169524Y0062214D01*
X0169524Y0066613D01*
X0171347Y0066613D01*
X0173924Y0064036D01*
X0173924Y0062213D01*
X0169525Y0062213D01*
X0169525Y0062213D01*
X0169524Y0062213D02*
X0169524Y0057813D01*
X0171347Y0057813D01*
X0173924Y0060391D01*
X0173924Y0062213D01*
X0169525Y0062213D01*
X0169524Y0061732D02*
X0169524Y0061732D01*
X0169524Y0060134D02*
X0169524Y0060134D01*
X0169524Y0058535D02*
X0169524Y0058535D01*
X0166980Y0058535D02*
X0162917Y0058535D01*
X0161595Y0057213D02*
X0164524Y0060142D01*
X0164524Y0064284D01*
X0161595Y0067213D01*
X0157453Y0067213D01*
X0154524Y0064284D01*
X0154524Y0060142D01*
X0157453Y0057213D01*
X0161595Y0057213D01*
X0164516Y0060134D02*
X0165381Y0060134D01*
X0165124Y0061732D02*
X0164524Y0061732D01*
X0164524Y0063331D02*
X0165124Y0063331D01*
X0166018Y0064929D02*
X0163879Y0064929D01*
X0162281Y0066528D02*
X0167616Y0066528D01*
X0169524Y0066528D02*
X0169524Y0066528D01*
X0171432Y0066528D02*
X0176299Y0066528D01*
X0176299Y0064929D02*
X0173031Y0064929D01*
X0173924Y0063331D02*
X0176299Y0063331D01*
X0176299Y0061732D02*
X0173924Y0061732D01*
X0173667Y0060134D02*
X0176299Y0060134D01*
X0176299Y0058535D02*
X0172069Y0058535D01*
X0169524Y0063331D02*
X0169524Y0063331D01*
X0169524Y0064929D02*
X0169524Y0064929D01*
X0156768Y0066528D02*
X0149218Y0066528D01*
X0148595Y0067150D02*
X0144453Y0067150D01*
X0141524Y0064221D01*
X0141524Y0060079D01*
X0144453Y0057150D01*
X0148595Y0057150D01*
X0151524Y0060079D01*
X0151524Y0064221D01*
X0148595Y0067150D01*
X0150816Y0064929D02*
X0155169Y0064929D01*
X0154524Y0063331D02*
X0151524Y0063331D01*
X0151524Y0061732D02*
X0154524Y0061732D01*
X0154533Y0060134D02*
X0151524Y0060134D01*
X0149980Y0058535D02*
X0156131Y0058535D01*
X0143068Y0058535D02*
X0119980Y0058535D01*
X0121524Y0060134D02*
X0141524Y0060134D01*
X0141524Y0061732D02*
X0121524Y0061732D01*
X0121524Y0063331D02*
X0141524Y0063331D01*
X0142232Y0064929D02*
X0120816Y0064929D01*
X0119218Y0066528D02*
X0143831Y0066528D01*
X0139358Y0047346D02*
X0155907Y0047346D01*
X0154308Y0045747D02*
X0152888Y0045747D01*
X0149772Y0045747D02*
X0149772Y0045747D01*
X0149772Y0046750D02*
X0149772Y0041651D01*
X0149772Y0041651D01*
X0149772Y0046750D01*
X0146657Y0045747D02*
X0140956Y0045747D01*
X0142109Y0044149D02*
X0145058Y0044149D01*
X0144672Y0042550D02*
X0142109Y0042550D01*
X0142109Y0040952D02*
X0144672Y0040952D01*
X0144857Y0039353D02*
X0141756Y0039353D01*
X0140158Y0037755D02*
X0146456Y0037755D01*
X0149772Y0037755D02*
X0149772Y0037755D01*
X0149772Y0039353D02*
X0149772Y0039353D01*
X0149772Y0040952D02*
X0149772Y0040952D01*
X0149772Y0042550D02*
X0149772Y0042550D01*
X0149772Y0044149D02*
X0149772Y0044149D01*
X0153089Y0037755D02*
X0154107Y0037755D01*
X0155706Y0036156D02*
X0135170Y0036156D01*
X0136446Y0041957D02*
X0128572Y0034083D01*
X0116761Y0034083D01*
X0112524Y0029847D01*
X0112524Y0020587D01*
X0107596Y0015375D02*
X0107453Y0015375D01*
X0106351Y0013777D02*
X0108698Y0013777D01*
X0116351Y0013777D02*
X0118698Y0013777D01*
X0117596Y0015375D02*
X0117453Y0015375D01*
X0126351Y0013777D02*
X0128698Y0013777D01*
X0127596Y0015375D02*
X0127453Y0015375D01*
X0136351Y0013777D02*
X0138698Y0013777D01*
X0137596Y0015375D02*
X0137453Y0015375D01*
X0146351Y0013777D02*
X0148698Y0013777D01*
X0147596Y0015375D02*
X0147453Y0015375D01*
X0156351Y0013777D02*
X0159603Y0013777D01*
X0158264Y0015375D02*
X0157453Y0015375D01*
X0162324Y0015375D02*
X0162724Y0015375D01*
X0162724Y0013777D02*
X0162324Y0013777D01*
X0165446Y0013777D02*
X0168698Y0013777D01*
X0167596Y0015375D02*
X0166785Y0015375D01*
X0162724Y0016974D02*
X0162324Y0016974D01*
X0162324Y0018573D02*
X0162724Y0018573D01*
X0162724Y0020171D02*
X0162324Y0020171D01*
X0162524Y0020587D02*
X0162524Y0023753D01*
X0156131Y0030146D01*
X0152194Y0030146D01*
X0155585Y0028164D02*
X0161075Y0028164D01*
X0162324Y0028164D02*
X0162724Y0028164D01*
X0163973Y0028164D02*
X0169464Y0028164D01*
X0167913Y0026565D02*
X0166294Y0026565D01*
X0167123Y0024967D02*
X0167251Y0024967D01*
X0162724Y0024967D02*
X0162324Y0024967D01*
X0162324Y0026565D02*
X0162724Y0026565D01*
X0158755Y0026565D02*
X0157136Y0026565D01*
X0157798Y0024967D02*
X0157926Y0024967D01*
X0162324Y0023368D02*
X0162724Y0023368D01*
X0162724Y0021770D02*
X0162324Y0021770D01*
X0175585Y0028164D02*
X0176299Y0028164D01*
X0176299Y0029762D02*
X0116965Y0029762D01*
X0115724Y0028164D02*
X0119464Y0028164D01*
X0117913Y0026565D02*
X0117136Y0026565D01*
X0104950Y0030146D02*
X0104950Y0030891D01*
X0116209Y0042150D01*
X0111462Y0045747D02*
X0110956Y0045747D01*
X0109358Y0047346D02*
X0113061Y0047346D01*
X0119358Y0047346D02*
X0123061Y0047346D01*
X0121462Y0045747D02*
X0120956Y0045747D01*
X0129358Y0047346D02*
X0133061Y0047346D01*
X0131462Y0045747D02*
X0130956Y0045747D01*
X0104950Y0030146D02*
X0093139Y0030146D01*
X0087524Y0024532D01*
X0087524Y0020587D01*
X0092924Y0020171D02*
X0097124Y0020171D01*
X0097124Y0018573D02*
X0092924Y0018573D01*
X0092924Y0016974D02*
X0097124Y0016974D01*
X0097596Y0015375D02*
X0092453Y0015375D01*
X0091351Y0013777D02*
X0098698Y0013777D01*
X0097124Y0021770D02*
X0092924Y0021770D01*
X0092924Y0023368D02*
X0097124Y0023368D01*
X0097251Y0024967D02*
X0092798Y0024967D01*
X0094083Y0026565D02*
X0097913Y0026565D01*
X0085265Y0030146D02*
X0073454Y0030146D01*
X0067524Y0024217D01*
X0067524Y0020587D01*
X0062596Y0015375D02*
X0062453Y0015375D01*
X0061351Y0013777D02*
X0063698Y0013777D01*
X0071351Y0013777D02*
X0073698Y0013777D01*
X0072596Y0015375D02*
X0072453Y0015375D01*
X0081351Y0013777D02*
X0083698Y0013777D01*
X0082596Y0015375D02*
X0082453Y0015375D01*
X0085265Y0030146D02*
X0097076Y0041957D01*
X0096883Y0042150D01*
X0096209Y0042150D01*
X0091462Y0045747D02*
X0090956Y0045747D01*
X0089358Y0047346D02*
X0093061Y0047346D01*
X0099358Y0047346D02*
X0103061Y0047346D01*
X0101462Y0045747D02*
X0100956Y0045747D01*
X0067064Y0036156D02*
X0008387Y0036156D01*
X0008387Y0028164D02*
X0014464Y0028164D01*
X0012913Y0026565D02*
X0008387Y0026565D01*
X0008387Y0024967D02*
X0012251Y0024967D01*
X0012124Y0023368D02*
X0008387Y0023368D01*
X0008387Y0021770D02*
X0012124Y0021770D01*
X0012124Y0020171D02*
X0008387Y0020171D01*
X0008387Y0018573D02*
X0012124Y0018573D01*
X0012124Y0016974D02*
X0008387Y0016974D01*
X0008387Y0015375D02*
X0012596Y0015375D01*
X0013698Y0013777D02*
X0008387Y0013777D01*
X0008387Y0012178D02*
X0176299Y0012178D01*
X0176299Y0010580D02*
X0008387Y0010580D01*
X0008387Y0008981D02*
X0176299Y0008981D01*
X0164206Y0036156D02*
X0160839Y0036156D01*
X0162438Y0037755D02*
X0162607Y0037755D01*
X0162808Y0045747D02*
X0162237Y0045747D01*
X0160638Y0047346D02*
X0164407Y0047346D01*
X0176299Y0050543D02*
X0044096Y0050543D01*
X0043434Y0052141D02*
X0176299Y0052141D01*
X0176299Y0053740D02*
X0041893Y0053740D01*
X0043677Y0045747D02*
X0061462Y0045747D01*
X0060309Y0044149D02*
X0042481Y0044149D01*
X0039853Y0042550D02*
X0060309Y0042550D01*
X0034464Y0028164D02*
X0030585Y0028164D01*
X0032136Y0026565D02*
X0032913Y0026565D01*
X0024464Y0028164D02*
X0020585Y0028164D01*
X0022136Y0026565D02*
X0022913Y0026565D01*
X0022596Y0015375D02*
X0022453Y0015375D01*
X0021351Y0013777D02*
X0023698Y0013777D01*
X0031351Y0013777D02*
X0033698Y0013777D01*
X0032596Y0015375D02*
X0032453Y0015375D01*
X0041351Y0013777D02*
X0043698Y0013777D01*
X0042596Y0015375D02*
X0042453Y0015375D01*
X0047524Y0020587D02*
X0047524Y0023902D01*
X0052453Y0015375D02*
X0052596Y0015375D01*
X0053698Y0013777D02*
X0051351Y0013777D01*
X0175166Y0080914D02*
X0176299Y0080914D01*
X0176299Y0082513D02*
X0175913Y0082513D01*
X0176042Y0084111D02*
X0176299Y0084111D01*
X0176299Y0085710D02*
X0175607Y0085710D01*
X0176299Y0087309D02*
X0174418Y0087309D01*
X0176299Y0095301D02*
X0105315Y0095301D01*
X0176299Y0096900D02*
X0008387Y0096900D01*
X0008387Y0098498D02*
X0176299Y0098498D01*
X0176299Y0100097D02*
X0008387Y0100097D01*
X0008387Y0101695D02*
X0176299Y0101695D01*
X0176299Y0103294D02*
X0008387Y0103294D01*
M02*
