solid Untitled-55c59707
facet normal 1.0 -0.0 -0.0
  outer loop
    vertex 18.60000000000006 100.0 2.8199664825478975e-15
    vertex 18.60000000000006 0.0 7.00000000000001
    vertex 18.60000000000006 0.0 2.8199664825478975e-15
  endloop
endfacet
facet normal 1.0 -0.0 -0.0
  outer loop
    vertex 18.60000000000006 0.0 7.00000000000001
    vertex 18.60000000000006 100.0 2.8199664825478975e-15
    vertex 18.60000000000006 100.0 7.00000000000001
  endloop
endfacet
facet normal -0.0 -0.0 1.0
  outer loop
    vertex 18.60000000000006 0.0 7.00000000000001
    vertex 11.600000000000035 100.0 7.00000000000001
    vertex 11.600000000000035 0.0 7.00000000000001
  endloop
endfacet
facet normal -0.0 -0.0 1.0
  outer loop
    vertex 11.600000000000035 100.0 7.00000000000001
    vertex 18.60000000000006 0.0 7.00000000000001
    vertex 18.60000000000006 100.0 7.00000000000001
  endloop
endfacet
facet normal -1.0 0.0 0.0
  outer loop
    vertex 11.600000000000035 100.0 7.00000000000001
    vertex 11.600000000000035 0.0 4.000000000000011
    vertex 11.600000000000035 0.0 7.00000000000001
  endloop
endfacet
facet normal -1.0 0.0 0.0
  outer loop
    vertex 11.600000000000035 0.0 4.000000000000011
    vertex 11.600000000000035 100.0 7.00000000000001
    vertex 11.600000000000035 100.0 4.000000000000011
  endloop
endfacet
facet normal -0.0 -0.0 1.0
  outer loop
    vertex 11.600000000000035 0.0 4.000000000000011
    vertex 7.019054305009985 100.0 4.000000000000011
    vertex 7.019054305009985 0.0 4.000000000000011
  endloop
endfacet
facet normal -0.0 -0.0 1.0
  outer loop
    vertex 7.019054305009985 100.0 4.000000000000011
    vertex 11.600000000000035 0.0 4.000000000000011
    vertex 11.600000000000035 100.0 4.000000000000011
  endloop
endfacet
facet normal 0.0 -1.0 0.0
  outer loop
    vertex 18.60000000000006 0.0 2.8199664825478975e-15
    vertex 11.600000000000035 0.0 4.000000000000011
    vertex 0.019054305009979355 0.0 2.8199664825478975e-15
  endloop
endfacet
facet normal 0.0 -1.0 0.0
  outer loop
    vertex 11.600000000000035 0.0 4.000000000000011
    vertex 18.60000000000006 0.0 2.8199664825478975e-15
    vertex 18.60000000000006 0.0 7.00000000000001
  endloop
endfacet
facet normal 0.0 -1.0 0.0
  outer loop
    vertex 11.600000000000035 0.0 4.000000000000011
    vertex 18.60000000000006 0.0 7.00000000000001
    vertex 11.600000000000035 0.0 7.00000000000001
  endloop
endfacet
facet normal 0.0 -1.0 0.0
  outer loop
    vertex 4.0190543050099885 0.0 25.00000000000006
    vertex 3.0190543050099796 0.0 4.000000000000011
    vertex 7.019054305009985 0.0 4.000000000000011
  endloop
endfacet
facet normal 0.0 -1.0 0.0
  outer loop
    vertex 3.0190543050099796 0.0 4.000000000000011
    vertex 4.0190543050099885 0.0 25.00000000000006
    vertex 0.019054305009979355 0.0 25.00000000000006
  endloop
endfacet
facet normal 0.0 -1.0 0.0
  outer loop
    vertex 11.600000000000035 0.0 4.000000000000011
    vertex 0.019054305009979355 0.0 4.000000000000011
    vertex 0.019054305009979355 0.0 2.8199664825478975e-15
  endloop
endfacet
facet normal 0.0 -1.0 0.0
  outer loop
    vertex 0.019054305009979355 0.0 4.000000000000011
    vertex 11.600000000000035 0.0 4.000000000000011
    vertex 7.019054305009985 0.0 4.000000000000011
  endloop
endfacet
facet normal 0.0 -1.0 0.0
  outer loop
    vertex 0.019054305009979355 0.0 4.000000000000011
    vertex 7.019054305009985 0.0 4.000000000000011
    vertex 3.0190543050099796 0.0 4.000000000000011
  endloop
endfacet
facet normal -0.0 -0.0 1.0
  outer loop
    vertex 3.0190543050099796 0.0 4.000000000000011
    vertex 0.019054305009979355 100.0 4.000000000000011
    vertex 0.019054305009979355 0.0 4.000000000000011
  endloop
endfacet
facet normal -0.0 -0.0 1.0
  outer loop
    vertex 0.019054305009979355 100.0 4.000000000000011
    vertex 3.0190543050099796 0.0 4.000000000000011
    vertex 3.0190543050099796 100.0 4.000000000000011
  endloop
endfacet
facet normal -0.0 -0.0 1.0
  outer loop
    vertex 4.0190543050099885 0.0 25.00000000000006
    vertex 0.019054305009979355 100.0 25.00000000000006
    vertex 0.019054305009979355 0.0 25.00000000000006
  endloop
endfacet
facet normal -0.0 -0.0 1.0
  outer loop
    vertex 0.019054305009979355 100.0 25.00000000000006
    vertex 4.0190543050099885 0.0 25.00000000000006
    vertex 4.0190543050099885 100.0 25.00000000000006
  endloop
endfacet
facet normal -0.9899494936611667 0.0 -0.14142135623730923
  outer loop
    vertex 0.019054305009979355 100.0 25.00000000000006
    vertex 3.0190543050099796 0.0 4.000000000000011
    vertex 0.019054305009979355 0.0 25.00000000000006
  endloop
endfacet
facet normal -0.9899494936611667 0.0 -0.14142135623730923
  outer loop
    vertex 3.0190543050099796 0.0 4.000000000000011
    vertex 0.019054305009979355 100.0 25.00000000000006
    vertex 3.0190543050099796 100.0 4.000000000000011
  endloop
endfacet
facet normal 0.9899494936611667 -0.0 0.14142135623730898
  outer loop
    vertex 7.019054305009985 100.0 4.000000000000011
    vertex 4.0190543050099885 0.0 25.00000000000006
    vertex 7.019054305009985 0.0 4.000000000000011
  endloop
endfacet
facet normal 0.9899494936611667 -0.0 0.14142135623730898
  outer loop
    vertex 4.0190543050099885 0.0 25.00000000000006
    vertex 7.019054305009985 100.0 4.000000000000011
    vertex 4.0190543050099885 100.0 25.00000000000006
  endloop
endfacet
facet normal -0.0 1.0 -0.0
  outer loop
    vertex 0.019054305009979355 100.0 25.00000000000006
    vertex 7.019054305009985 100.0 4.000000000000011
    vertex 3.0190543050099796 100.0 4.000000000000011
  endloop
endfacet
facet normal -0.0 1.0 -0.0
  outer loop
    vertex 7.019054305009985 100.0 4.000000000000011
    vertex 0.019054305009979355 100.0 25.00000000000006
    vertex 4.0190543050099885 100.0 25.00000000000006
  endloop
endfacet
facet normal -0.0 1.0 -0.0
  outer loop
    vertex 0.019054305009979355 100.0 4.000000000000011
    vertex 18.60000000000006 100.0 2.8199664825478975e-15
    vertex 0.019054305009979355 100.0 2.8199664825478975e-15
  endloop
endfacet
facet normal -0.0 1.0 -0.0
  outer loop
    vertex 18.60000000000006 100.0 2.8199664825478975e-15
    vertex 0.019054305009979355 100.0 4.000000000000011
    vertex 11.600000000000035 100.0 4.000000000000011
  endloop
endfacet
facet normal -0.0 1.0 -0.0
  outer loop
    vertex 18.60000000000006 100.0 2.8199664825478975e-15
    vertex 11.600000000000035 100.0 4.000000000000011
    vertex 18.60000000000006 100.0 7.00000000000001
  endloop
endfacet
facet normal -0.0 1.0 -0.0
  outer loop
    vertex 11.600000000000035 100.0 4.000000000000011
    vertex 0.019054305009979355 100.0 4.000000000000011
    vertex 3.0190543050099796 100.0 4.000000000000011
  endloop
endfacet
facet normal -0.0 1.0 -0.0
  outer loop
    vertex 11.600000000000035 100.0 4.000000000000011
    vertex 3.0190543050099796 100.0 4.000000000000011
    vertex 7.019054305009985 100.0 4.000000000000011
  endloop
endfacet
facet normal -0.0 1.0 -0.0
  outer loop
    vertex 18.60000000000006 100.0 7.00000000000001
    vertex 11.600000000000035 100.0 4.000000000000011
    vertex 11.600000000000035 100.0 7.00000000000001
  endloop
endfacet
facet normal 0.0 0.0 -1.0
  outer loop
    vertex 18.60000000000006 100.0 2.8199664825478975e-15
    vertex 0.019054305009979355 0.0 2.8199664825478975e-15
    vertex 0.019054305009979355 100.0 2.8199664825478975e-15
  endloop
endfacet
facet normal 0.0 0.0 -1.0
  outer loop
    vertex 0.019054305009979355 0.0 2.8199664825478975e-15
    vertex 18.60000000000006 100.0 2.8199664825478975e-15
    vertex 18.60000000000006 0.0 2.8199664825478975e-15
  endloop
endfacet
facet normal -1.0 0.0 0.0
  outer loop
    vertex 0.019054305009979355 100.0 4.000000000000011
    vertex 0.019054305009979355 0.0 2.8199664825478975e-15
    vertex 0.019054305009979355 0.0 4.000000000000011
  endloop
endfacet
facet normal -1.0 0.0 0.0
  outer loop
    vertex 0.019054305009979355 0.0 2.8199664825478975e-15
    vertex 0.019054305009979355 100.0 4.000000000000011
    vertex 0.019054305009979355 100.0 2.8199664825478975e-15
  endloop
endfacet
endsolid Untitled-55c59707
