G75*
%MOIN*%
%OFA0B0*%
%FSLAX24Y24*%
%IPPOS*%
%LPD*%
%AMOC8*
5,1,8,0,0,1.08239X$1,22.5*
%
%ADD10C,0.0000*%
%ADD11C,0.0600*%
%ADD12OC8,0.0660*%
%ADD13C,0.0100*%
D10*
X000100Y000100D02*
X000100Y006006D01*
X044588Y006006D01*
X044588Y000100D01*
X000100Y000100D01*
D11*
X016470Y004233D02*
X016470Y004833D01*
X017470Y004833D02*
X017470Y004233D01*
X018470Y004233D02*
X018470Y004833D01*
X019470Y004833D02*
X019470Y004233D01*
X020470Y004233D02*
X020470Y004833D01*
X021470Y004833D02*
X021470Y004233D01*
X022470Y004233D02*
X022470Y004833D01*
X023470Y004833D02*
X023470Y004233D01*
X024470Y004233D02*
X024470Y004833D01*
X025470Y004833D02*
X025470Y004233D01*
X026470Y004233D02*
X026470Y004833D01*
X027470Y004833D02*
X027470Y004233D01*
X028470Y004233D02*
X028470Y004833D01*
X029470Y004833D02*
X029470Y004233D01*
X030470Y004233D02*
X030470Y004833D01*
X031470Y004833D02*
X031470Y004233D01*
X032470Y004233D02*
X032470Y004833D01*
X033470Y004833D02*
X033470Y004233D01*
D12*
X032643Y002198D03*
X031643Y002198D03*
X029868Y002198D03*
X028868Y002198D03*
X027112Y002206D03*
X026112Y002206D03*
X024356Y002206D03*
X023356Y002206D03*
X021600Y002206D03*
X020600Y002206D03*
X018836Y002202D03*
X017836Y002202D03*
X016108Y002214D03*
X015108Y002214D03*
X013336Y002194D03*
X012336Y002194D03*
X010600Y002222D03*
X009600Y002222D03*
X007832Y002198D03*
X006832Y002198D03*
X005065Y002218D03*
X004065Y002218D03*
X002301Y002218D03*
X001301Y002218D03*
X034383Y002202D03*
X035383Y002202D03*
X037143Y002214D03*
X038143Y002214D03*
X039887Y002210D03*
X040887Y002210D03*
X042639Y002194D03*
X043639Y002194D03*
D13*
X043593Y002238D01*
X043323Y002238D01*
X042873Y002688D01*
X041343Y002688D01*
X040893Y002238D01*
X040887Y002210D01*
X039887Y002210D02*
X039813Y002238D01*
X036753Y005298D01*
X031263Y005298D01*
X030543Y004578D01*
X030470Y004533D01*
X032470Y004533D02*
X032523Y004488D01*
X034323Y002688D01*
X034863Y002688D01*
X035313Y002238D01*
X035383Y002202D01*
X035403Y002148D01*
X035853Y001698D01*
X037293Y001698D01*
X037743Y002148D01*
X038103Y002148D01*
X038143Y002214D01*
X035383Y002202D02*
X035313Y002148D01*
X034863Y001698D01*
X034233Y001698D01*
X033783Y002148D01*
X032703Y002148D01*
X032643Y002198D01*
X031643Y002198D02*
X031623Y002238D01*
X031173Y002688D01*
X029283Y002688D01*
X027483Y004488D01*
X027470Y004533D01*
X026493Y004488D02*
X026470Y004533D01*
X026493Y004488D02*
X028833Y002148D01*
X028868Y002198D01*
X026112Y002206D02*
X026043Y002238D01*
X025503Y002778D01*
X025503Y004488D01*
X025470Y004533D01*
X024470Y004533D02*
X024423Y004488D01*
X024423Y003228D01*
X023433Y002238D01*
X023356Y002206D01*
X021093Y002688D02*
X020643Y002238D01*
X020600Y002206D01*
X018836Y002202D02*
X018753Y002148D01*
X018483Y002148D01*
X018033Y001698D01*
X016593Y001698D01*
X016143Y002148D01*
X016108Y002214D01*
X016053Y002148D01*
X015603Y001698D01*
X014973Y001698D01*
X014523Y002148D01*
X013353Y002148D01*
X013336Y002194D01*
X012993Y002868D02*
X012363Y002238D01*
X012336Y002194D01*
X010113Y002688D02*
X009663Y002238D01*
X009600Y002222D01*
X007503Y002868D02*
X006873Y002238D01*
X006832Y002198D01*
X005065Y002218D02*
X004983Y002148D01*
X004533Y001698D01*
X003903Y001698D01*
X003453Y002148D01*
X002373Y002148D01*
X002301Y002218D01*
X001383Y002238D02*
X001301Y002218D01*
X001383Y002238D02*
X003633Y004488D01*
X016413Y004488D01*
X016470Y004533D01*
X017133Y003228D02*
X018393Y004488D01*
X018470Y004533D01*
X019383Y004488D02*
X019470Y004533D01*
X019383Y004488D02*
X017943Y003048D01*
X012813Y003048D01*
X012453Y002688D01*
X010113Y002688D01*
X012363Y002868D02*
X007503Y002868D01*
X012363Y002868D02*
X012723Y003228D01*
X017133Y003228D01*
X018843Y002868D02*
X012993Y002868D01*
X017836Y002202D02*
X017853Y002238D01*
X018303Y002688D01*
X020643Y002688D01*
X022443Y004488D01*
X022470Y004533D01*
X023433Y004488D02*
X023470Y004533D01*
X023433Y004488D02*
X021633Y002688D01*
X021093Y002688D01*
X020463Y004488D02*
X018843Y002868D01*
X028473Y004488D02*
X030093Y002868D01*
X033693Y002868D01*
X034323Y002238D01*
X034383Y002202D01*
X028473Y004488D02*
X028470Y004533D01*
X020470Y004533D02*
X020463Y004488D01*
M02*
