%
M48
M72
T01C0.0320
T02C0.0400
%
T01
X12336Y2194
X13336Y2194
X15108Y2214
X16108Y2214
X17836Y2202
X18836Y2202
X20600Y2206
X21600Y2206
X23356Y2206
X24356Y2206
X26112Y2206
X27112Y2206
X28868Y2198
X29868Y2198
X31643Y2198
X32643Y2198
X34383Y2202
X35383Y2202
X37143Y2214
X38143Y2214
X39887Y2210
X40887Y2210
X42639Y2194
X43639Y2194
X10600Y2222
X9600Y2222
X7832Y2198
X6832Y2198
X5065Y2218
X4065Y2218
X2301Y2218
X1301Y2218
T02
X16470Y4533
X17470Y4533
X18470Y4533
X19470Y4533
X20470Y4533
X21470Y4533
X22470Y4533
X23470Y4533
X24470Y4533
X25470Y4533
X26470Y4533
X27470Y4533
X28470Y4533
X29470Y4533
X30470Y4533
X31470Y4533
X32470Y4533
X33470Y4533
M30
