G75*
%MOIN*%
%OFA0B0*%
%FSLAX24Y24*%
%IPPOS*%
%LPD*%
%AMOC8*
5,1,8,0,0,1.08239X$1,22.5*
%
%ADD10C,0.0600*%
%ADD11OC8,0.0660*%
%ADD12C,0.0100*%
D10*
X016470Y004233D02*
X016470Y004833D01*
X017470Y004833D02*
X017470Y004233D01*
X018470Y004233D02*
X018470Y004833D01*
X019470Y004833D02*
X019470Y004233D01*
X020470Y004233D02*
X020470Y004833D01*
X021470Y004833D02*
X021470Y004233D01*
X022470Y004233D02*
X022470Y004833D01*
X023470Y004833D02*
X023470Y004233D01*
X024470Y004233D02*
X024470Y004833D01*
X025470Y004833D02*
X025470Y004233D01*
X026470Y004233D02*
X026470Y004833D01*
X027470Y004833D02*
X027470Y004233D01*
X028470Y004233D02*
X028470Y004833D01*
X029470Y004833D02*
X029470Y004233D01*
X030470Y004233D02*
X030470Y004833D01*
X031470Y004833D02*
X031470Y004233D01*
X032470Y004233D02*
X032470Y004833D01*
X033470Y004833D02*
X033470Y004233D01*
D11*
X012336Y002194D03*
X013336Y002194D03*
X015108Y002214D03*
X016108Y002214D03*
X017836Y002202D03*
X018836Y002202D03*
X020600Y002206D03*
X021600Y002206D03*
X023356Y002206D03*
X024356Y002206D03*
X026112Y002206D03*
X027112Y002206D03*
X028868Y002198D03*
X029868Y002198D03*
X031643Y002198D03*
X032643Y002198D03*
X034383Y002202D03*
X035383Y002202D03*
X037143Y002214D03*
X038143Y002214D03*
X039887Y002210D03*
X040887Y002210D03*
X042639Y002194D03*
X043639Y002194D03*
X010600Y002222D03*
X009600Y002222D03*
X007832Y002198D03*
X006832Y002198D03*
X005065Y002218D03*
X004065Y002218D03*
X002301Y002218D03*
X001301Y002218D03*
D12*
X004065Y002218D02*
X004083Y002238D01*
X004713Y002868D01*
X015783Y002868D01*
X017403Y004488D01*
X017470Y004533D01*
X019653Y002688D02*
X021453Y004488D01*
X021470Y004533D01*
X029470Y004533D02*
X029553Y004578D01*
X030273Y005298D01*
X034053Y005298D01*
X037113Y002238D01*
X037143Y002214D01*
X038143Y002214D02*
X038193Y002238D01*
X038643Y002688D01*
X040083Y002688D01*
X040533Y002238D01*
X040803Y002238D01*
X040887Y002210D01*
X042153Y001698D02*
X042603Y002148D01*
X042639Y002194D01*
X042153Y001698D02*
X036933Y001698D01*
X035943Y002688D01*
X033333Y002688D01*
X031533Y004488D01*
X031470Y004533D01*
X031443Y002688D02*
X032163Y002688D01*
X032613Y002238D01*
X032643Y002198D01*
X031443Y002688D02*
X030993Y002238D01*
X029913Y002238D01*
X029868Y002198D01*
X029823Y002238D01*
X029373Y002688D01*
X028653Y002688D01*
X028203Y002238D01*
X027123Y002238D01*
X027112Y002206D01*
X027033Y002238D01*
X026763Y002238D01*
X026313Y002688D01*
X024873Y002688D01*
X024423Y002238D01*
X024356Y002206D01*
X024333Y002238D01*
X023883Y002688D01*
X023163Y002688D01*
X022713Y002238D01*
X021633Y002238D01*
X021600Y002206D01*
X021543Y002238D01*
X021093Y002688D01*
X020373Y002688D01*
X019923Y002238D01*
X018843Y002238D01*
X018836Y002202D01*
X019653Y002688D02*
X015603Y002688D01*
X015153Y002238D01*
X015108Y002214D01*
X013336Y002194D02*
X013263Y002238D01*
X012993Y002238D01*
X012543Y002688D01*
X011103Y002688D01*
X010653Y002238D01*
X010600Y002222D01*
X010563Y002238D01*
X010113Y002688D01*
X009393Y002688D01*
X008943Y002238D01*
X007863Y002238D01*
X007832Y002198D01*
X007773Y002238D01*
X007323Y002688D01*
X006603Y002688D01*
X006153Y002238D01*
X005073Y002238D01*
X005065Y002218D01*
M02*
