G75*
%MOIN*%
%OFA0B0*%
%FSLAX24Y24*%
%IPPOS*%
%LPD*%
%AMOC8*
5,1,8,0,0,1.08239X$1,22.5*
%
%ADD10C,0.0680*%
%ADD11OC8,0.0740*%
D10*
X016470Y004233D02*
X016470Y004833D01*
X017470Y004833D02*
X017470Y004233D01*
X018470Y004233D02*
X018470Y004833D01*
X019470Y004833D02*
X019470Y004233D01*
X020470Y004233D02*
X020470Y004833D01*
X021470Y004833D02*
X021470Y004233D01*
X022470Y004233D02*
X022470Y004833D01*
X023470Y004833D02*
X023470Y004233D01*
X024470Y004233D02*
X024470Y004833D01*
X025470Y004833D02*
X025470Y004233D01*
X026470Y004233D02*
X026470Y004833D01*
X027470Y004833D02*
X027470Y004233D01*
X028470Y004233D02*
X028470Y004833D01*
X029470Y004833D02*
X029470Y004233D01*
X030470Y004233D02*
X030470Y004833D01*
X031470Y004833D02*
X031470Y004233D01*
X032470Y004233D02*
X032470Y004833D01*
X033470Y004833D02*
X033470Y004233D01*
D11*
X012336Y002194D03*
X013336Y002194D03*
X015108Y002214D03*
X016108Y002214D03*
X017836Y002202D03*
X018836Y002202D03*
X020600Y002206D03*
X021600Y002206D03*
X023356Y002206D03*
X024356Y002206D03*
X026112Y002206D03*
X027112Y002206D03*
X028868Y002198D03*
X029868Y002198D03*
X031643Y002198D03*
X032643Y002198D03*
X034383Y002202D03*
X035383Y002202D03*
X037143Y002214D03*
X038143Y002214D03*
X039887Y002210D03*
X040887Y002210D03*
X042639Y002194D03*
X043639Y002194D03*
X010600Y002222D03*
X009600Y002222D03*
X007832Y002198D03*
X006832Y002198D03*
X005065Y002218D03*
X004065Y002218D03*
X002301Y002218D03*
X001301Y002218D03*
M02*
