%
M48
M72
T01C0.04000
%
T01
X21013Y11595
X31013Y11595
X41013Y11595
X51013Y11595
X61013Y11595
X71013Y11595
X81013Y11595
X91013Y11595
X104517Y11643
X114517Y11643
X124517Y11643
X134517Y11643
X144517Y11643
X154517Y11643
X164517Y11643
X174517Y11643
X171013Y33670
X181013Y33670
X161013Y33670
X151013Y33670
X141013Y33670
X131013Y33670
X121013Y33670
X111013Y33670
X101013Y33670
X91013Y33670
X81013Y33670
X71013Y33670
X61013Y33670
X51013Y33670
X41013Y33670
X31013Y33670
X21013Y33670
X11013Y33670
X11013Y43670
X21013Y43670
X31013Y43670
X41013Y43670
X51013Y43670
X61013Y43670
X71013Y43670
X81013Y43670
X91013Y43670
X101013Y43670
X111013Y43670
X121013Y43670
X131013Y43670
X141013Y43670
X151013Y43670
X161013Y43670
X171013Y43670
X181013Y43670
X91013Y72725
X81013Y72725
X71013Y72725
X61013Y72725
X51013Y72725
X41013Y72725
X31013Y72725
X21013Y72725
M30
